<svg width="21" height="21" viewBox="0 0 21 21" fill="none" xmlns="http://www.w3.org/2000/svg">
<path d="M0.710938 15.1298C0.710938 14.6024 0.847219 14.117 1.11978 13.6736C1.39249 13.2301 1.75598 12.892 2.21025 12.6592C3.12492 12.2036 4.05584 11.8611 5.00303 11.6315C5.95036 11.402 6.91228 11.2872 7.88878 11.2872C8.87214 11.2872 9.83748 11.4011 10.7848 11.6289C11.7321 11.8567 12.6596 12.1984 13.5671 12.654C14.0215 12.8867 14.385 13.224 14.6576 13.6657C14.9303 14.1076 15.0666 14.5956 15.0666 15.1298V15.7775C15.0666 16.3285 14.8726 16.798 14.4845 17.186C14.0965 17.5741 13.627 17.7681 13.076 17.7681H2.70156C2.15046 17.7681 1.68095 17.5741 1.29303 17.186C0.904969 16.798 0.710938 16.3285 0.710938 15.7775V15.1298ZM16.2256 17.7681C16.4243 17.4741 16.5725 17.1576 16.6701 16.8185C16.7678 16.4795 16.8166 16.1325 16.8166 15.7775V14.9966C16.8166 14.3305 16.638 13.6787 16.2807 13.0409C15.9234 12.4032 15.3922 11.8572 14.6871 11.4029C15.4065 11.4939 16.0986 11.6495 16.7635 11.8695C17.4285 12.0897 18.0436 12.3512 18.6088 12.654C19.1478 12.9456 19.562 13.2902 19.8513 13.6876C20.1405 14.085 20.2851 14.5178 20.2851 14.9861V15.7775C20.2851 16.3285 20.0911 16.798 19.703 17.186C19.3151 17.5741 18.8456 17.7681 18.2945 17.7681H16.2256ZM7.88878 10.4122C6.89828 10.4122 6.05252 10.0617 5.3515 9.36069C4.65033 8.65952 4.29975 7.81376 4.29975 6.82341C4.29975 5.83305 4.65033 4.98729 5.3515 4.28613C6.05252 3.58496 6.89828 3.23438 7.88878 3.23438C8.87914 3.23438 9.7249 3.58496 10.4261 4.28613C11.1271 4.98729 11.4776 5.83305 11.4776 6.82341C11.4776 7.81376 11.1271 8.65952 10.4261 9.36069C9.7249 10.0617 8.87914 10.4122 7.88878 10.4122ZM16.8952 6.82341C16.8952 7.81026 16.5437 8.65515 15.8408 9.35806C15.1379 10.0608 14.293 10.4122 13.3061 10.4122C13.1422 10.4122 12.938 10.3932 12.6936 10.3551C12.4492 10.3169 12.2398 10.2724 12.0654 10.2217C12.4661 9.74802 12.7731 9.21981 12.9863 8.63706C13.1995 8.05446 13.3061 7.44991 13.3061 6.82341C13.3061 6.19691 13.1995 5.59235 12.9863 5.00975C12.7731 4.427 12.4661 3.89879 12.0654 3.42513C12.273 3.34871 12.479 3.29781 12.6831 3.27244C12.8873 3.24706 13.095 3.23438 13.3061 3.23438C14.293 3.23438 15.1379 3.58583 15.8408 4.28875C16.5437 4.99167 16.8952 5.83655 16.8952 6.82341Z" fill="#181615"/>
</svg>
