<svg width="21" height="21" viewBox="0 0 21 21" fill="none" xmlns="http://www.w3.org/2000/svg">
<path d="M12.7364 13.6045L12.3382 14.0245C12.3382 14.0245 11.3906 15.0212 8.805 12.299C6.21937 9.57692 7.167 8.58029 7.167 8.58029L7.41812 8.31517C8.03587 7.66417 8.0945 6.61942 7.55462 5.85642L6.45212 4.29629C5.78362 3.35129 4.493 3.22704 3.72737 4.03292L2.3545 5.47754C1.97562 5.87742 1.72187 6.39454 1.7525 6.96942C1.83125 8.43942 2.4595 11.6008 5.963 15.2907C9.67912 19.2019 13.166 19.3577 14.5914 19.2168C15.0429 19.173 15.4349 18.9289 15.7507 18.5964L16.9932 17.2874C17.8332 16.4037 17.597 14.8899 16.5225 14.2722L14.8512 13.3097C14.146 12.9045 13.2876 13.0235 12.7364 13.6037" fill="#181615"/>
<path d="M14.8757 10.5C15.8272 10.4998 16.7526 10.1895 17.5118 9.61614C18.271 9.04273 18.8226 8.23747 19.083 7.32238C19.3434 6.40729 19.2983 5.43227 18.9548 4.54506C18.6112 3.65786 17.9877 2.90683 17.179 2.4058C16.3702 1.90477 15.4201 1.68105 14.4727 1.76854C13.5253 1.85603 12.6323 2.24996 11.9289 2.89064C11.2255 3.53131 10.7502 4.3838 10.5749 5.31893C10.3996 6.25405 10.5339 7.22083 10.9575 8.07275C11.0373 8.22751 11.0582 8.40602 11.0161 8.575L10.7554 9.54888C10.7296 9.6453 10.7296 9.74682 10.7554 9.84324C10.7813 9.93965 10.832 10.0276 10.9026 10.0982C10.9732 10.1687 11.0611 10.2195 11.1575 10.2453C11.2539 10.2712 11.3554 10.2712 11.4519 10.2454L12.4257 9.98463C12.5947 9.94258 12.7732 9.96341 12.928 10.0433C13.5333 10.3439 14.1999 10.5002 14.8757 10.5Z" fill="#181615"/>
</svg>
