<svg width="21" height="21" viewBox="0 0 21 21" fill="none" xmlns="http://www.w3.org/2000/svg">
<path d="M14.4346 6.07031C14.2568 6.07031 14.103 6.00537 13.9731 5.87549C13.8433 5.74561 13.7783 5.5918 13.7783 5.41406C13.7783 5.06543 13.8433 4.73047 13.9731 4.40918C14.103 4.08789 14.2944 3.8042 14.5474 3.55811L15.3574 2.73779C15.6172 2.47803 15.7471 2.16699 15.7471 1.80469C15.7471 1.62695 15.812 1.47314 15.9419 1.34326C16.0718 1.21338 16.2256 1.14844 16.4033 1.14844C16.5811 1.14844 16.7349 1.21338 16.8647 1.34326C16.9946 1.47314 17.0596 1.62695 17.0596 1.80469C17.0596 2.15332 16.9946 2.48828 16.8647 2.80957C16.7349 3.13086 16.5435 3.41455 16.2905 3.66064L15.4805 4.48096C15.2207 4.74072 15.0908 5.05176 15.0908 5.41406C15.0908 5.5918 15.0259 5.74561 14.896 5.87549C14.7661 6.00537 14.6123 6.07031 14.4346 6.07031ZM10.4971 6.07031C10.3193 6.07031 10.1655 6.00537 10.0356 5.87549C9.90576 5.74561 9.84082 5.5918 9.84082 5.41406C9.84082 5.06543 9.90576 4.73047 10.0356 4.40918C10.1655 4.08789 10.3569 3.8042 10.6099 3.55811L11.4199 2.73779C11.6797 2.47803 11.8096 2.16699 11.8096 1.80469C11.8096 1.62695 11.8745 1.47314 12.0044 1.34326C12.1343 1.21338 12.2881 1.14844 12.4658 1.14844C12.6436 1.14844 12.7974 1.21338 12.9272 1.34326C13.0571 1.47314 13.1221 1.62695 13.1221 1.80469C13.1221 2.15332 13.0571 2.48828 12.9272 2.80957C12.7974 3.13086 12.606 3.41455 12.353 3.66064L11.543 4.48096C11.2832 4.74072 11.1533 5.05176 11.1533 5.41406C11.1533 5.5918 11.0884 5.74561 10.9585 5.87549C10.8286 6.00537 10.6748 6.07031 10.4971 6.07031ZM19.0283 7.875C19.3018 7.875 19.5581 7.92627 19.7974 8.02881C20.0366 8.13135 20.2451 8.27148 20.4229 8.44922C20.6006 8.62695 20.7407 8.83545 20.8433 9.07471C20.9458 9.31396 20.9971 9.57031 20.9971 9.84375V13.7812C20.9971 14.0547 20.9458 14.311 20.8433 14.5503C20.7407 14.7896 20.6006 14.998 20.4229 15.1758C20.2451 15.3535 20.0366 15.4937 19.7974 15.5962C19.5581 15.6987 19.3018 15.75 19.0283 15.75H18.4438C18.4302 15.7979 18.4199 15.8423 18.4131 15.8833C18.4062 15.9243 18.3926 15.9653 18.3721 16.0063V16.4062C18.3721 16.8574 18.2866 17.2812 18.1157 17.6777C17.9448 18.0742 17.709 18.4229 17.4082 18.7236C17.1074 19.0244 16.7588 19.2603 16.3623 19.4312C15.9658 19.6021 15.542 19.6875 15.0908 19.6875H11.1533C10.6201 19.6875 10.1279 19.5679 9.67676 19.3286C9.22559 19.0894 8.84961 18.7715 8.54883 18.375H3.42188C2.9707 18.375 2.54688 18.2896 2.15039 18.1187C1.75391 17.9478 1.40527 17.7153 1.10449 17.4214C0.803711 17.1274 0.567871 16.7788 0.396973 16.3755C0.226074 15.9722 0.140625 15.5449 0.140625 15.0938V14.4375H2.76562C2.76562 13.8975 2.86816 13.3882 3.07324 12.9097C3.27832 12.4312 3.56201 12.0142 3.92432 11.6587C4.28662 11.3032 4.70361 11.0195 5.17529 10.8076C5.64697 10.5957 6.15625 10.4932 6.70312 10.5C6.9082 10.5 7.10645 10.5171 7.29785 10.5513C7.48926 10.5854 7.68066 10.6333 7.87207 10.6948V6.5625H18.3721V7.875H19.0283ZM6.70312 11.8125C6.34082 11.8125 6.00244 11.8809 5.68799 12.0176C5.37354 12.1543 5.09326 12.3423 4.84717 12.5815C4.60107 12.8208 4.41309 13.0977 4.2832 13.4121C4.15332 13.7266 4.08496 14.0684 4.07812 14.4375H7.87207V12.0996C7.69434 12.0107 7.50977 11.9424 7.31836 11.8945C7.12695 11.8467 6.92188 11.8193 6.70312 11.8125ZM3.42188 17.0625H7.94385C7.896 16.8643 7.87207 16.6455 7.87207 16.4062V15.75H1.56592C1.63428 15.9414 1.72998 16.1157 1.85303 16.2729C1.97607 16.4302 2.11621 16.5703 2.27344 16.6934C2.43066 16.8164 2.6084 16.9053 2.80664 16.96C3.00488 17.0146 3.20996 17.0488 3.42188 17.0625ZM8.16943 17.7495V17.7598L8.17969 17.7803V17.77L8.16943 17.7495ZM17.0596 16.4062V7.875H9.18457V16.4062C9.18457 16.6797 9.23584 16.936 9.33838 17.1753C9.44092 17.4146 9.58105 17.623 9.75879 17.8008C9.93652 17.9785 10.145 18.1187 10.3843 18.2212C10.6235 18.3237 10.8799 18.375 11.1533 18.375H15.0908C15.3643 18.375 15.6206 18.3237 15.8599 18.2212C16.0991 18.1187 16.3076 17.9785 16.4854 17.8008C16.6631 17.623 16.8032 17.4146 16.9058 17.1753C17.0083 16.936 17.0596 16.6797 17.0596 16.4062ZM19.6846 13.7812V9.84375C19.6846 9.66602 19.6196 9.51221 19.4897 9.38232C19.3599 9.25244 19.2061 9.1875 19.0283 9.1875H18.3721V14.4375H19.0283C19.2061 14.4375 19.3599 14.3726 19.4897 14.2427C19.6196 14.1128 19.6846 13.959 19.6846 13.7812Z" fill="#181615"/>
</svg>
